<svg width="0" height="0" class="hidden">
  <symbol xmlns="http://www.w3.org/2000/svg" id="activity">
    <path d="M71.727 20.969L63.257 1.89a3.179 3.179 0 0 0-2.904-1.891 3.18 3.18 0 0 0-3.098 2.473L48.888 39.33 37.88 12.57a3.179 3.179 0 0 0-2.938-1.971 3.173 3.173 0 0 0-2.92 1.93L22.014 35.904 16.609 25.08a3.177 3.177 0 0 0-5.284-.615L.737 37.184a3.18 3.18 0 0 0 2.44 5.215c.98 0 1.859-.445 2.44-1.144l7.478-8.984 6.297 12.609a3.177 3.177 0 0 0 5.764-.17l9.726-22.721 11.945 29.039a3.177 3.177 0 0 0 6.036-.501l8.471-37.311 4.586 10.333a3.179 3.179 0 0 0 2.904 1.89 3.179 3.179 0 0 0 2.903-4.47z"></path>
  </symbol>
  <symbol xmlns="http://www.w3.org/2000/svg" id="atom">
    <path d="M46.189 39.503c-1.367 2.348-4.18 3.551-8.063 3.551-1.536 0-3.25-.2-5.097-.579-2.126 6.726-5.531 10.535-9.529 10.535-3.996 0-7.401-3.809-9.527-10.532-1.897.396-3.639.584-5.193.584-3.846 0-6.588-1.186-7.967-3.557-1.926-3.319-.39-7.986 4.195-13.006-4.583-5.02-6.121-9.686-4.196-13.004 1.906-3.277 6.642-4.31 13.158-2.969C16.098 3.799 19.502-.011 23.5-.011c3.998 0 7.403 3.81 9.529 10.537 2.057-.429 3.924-.624 5.578-.589 3.643.076 6.251 1.269 7.58 3.557 1.926 3.317.39 7.985-4.195 13.005 4.584 5.018 6.121 9.685 4.197 13.004zm-28.001-.598c1.649 6.653 4.134 9.133 5.312 9.133 1.036 0 3.08-1.916 4.68-6.896a55.467 55.467 0 0 1-5.762-2.329 62.923 62.923 0 0 1-4.676-2.435l-.071-.041c.161.868.313 1.744.517 2.568zM5.185 37.034c.472.813 2.928 1.554 7.616.61-.38-1.967-.693-3.991-.861-6.12a63.825 63.825 0 0 1-.186-4.606c-.52.453-1.025.907-1.497 1.36-4.749 4.565-5.631 7.791-5.072 8.756zm9.873-21.141c-6.173-1.714-9.33-.866-9.876.073-.485.837.128 3.398 3.434 7.062a55.935 55.935 0 0 1 4.379-3.394 64.262 64.262 0 0 1 4.606-2.93 40.76 40.76 0 0 0-2.543-.811zm13.755-1.8c-1.649-6.654-4.134-9.134-5.313-9.134-1.036 0-3.08 1.918-4.68 6.898a55.07 55.07 0 0 1 5.762 2.329 63.687 63.687 0 0 1 4.677 2.432l.07.043c-.16-.868-.313-1.745-.516-2.568zm1.27 8.924a60.027 60.027 0 0 0-3.358-2.103 60.326 60.326 0 0 0-3.225-1.705 60.294 60.294 0 0 0-3.224 1.705 59.138 59.138 0 0 0-3.359 2.104c-.067 1.151-.134 2.305-.134 3.481 0 1.177.067 2.332.134 3.482a59.068 59.068 0 0 0 3.359 2.101c1.041.6 2.126 1.165 3.224 1.707a56.918 56.918 0 0 0 3.225-1.706 60.004 60.004 0 0 0 3.358-2.102c.068-1.151.135-2.305.135-3.482 0-1.176-.067-2.33-.135-3.482zm-.681 13.277c.862.303 1.712.581 2.54.811 6.17 1.712 9.329.862 9.877-.071.485-.84-.13-3.401-3.433-7.064a56.64 56.64 0 0 1-4.38 3.395 64.083 64.083 0 0 1-4.604 2.929zm12.413-20.33c-.475-.813-2.929-1.555-7.616-.611.381 1.967.694 3.993.861 6.121.118 1.501.177 3.05.187 4.605.52-.452 1.025-.906 1.497-1.36 4.749-4.563 5.63-7.791 5.071-8.755zM23.5 29.813c-1.854 0-3.359-1.485-3.359-3.314 0-1.831 1.505-3.315 3.359-3.315s3.359 1.484 3.359 3.315c0 1.829-1.505 3.314-3.359 3.314z"></path>
  </symbol>
  <symbol xmlns="http://www.w3.org/2000/svg" id="branding">
    <path d="M30 0H10a2 2 0 0 0-2 2v5.999H2A2 2 0 0 0 0 10v20a2 2 0 0 0 2 2h20a2 2 0 0 0 2-2v-6.001h6A2 2 0 0 0 32 22V2a2 2 0 0 0-2-2zm-9 29H3V10.999h5V22a2 2 0 0 0 2 1.999h11V29zm8-8.001H11V3h18v17.999z"></path>
  </symbol>
  <symbol xmlns="http://www.w3.org/2000/svg" id="cap">
    <path d="M63.972 15.246L34.639.389A3.62 3.62 0 0 0 33-.001c-.589 0-1.144.14-1.638.39L2.029 15.246A3.72 3.72 0 0 0 0 18.571c0 1.454.826 2.714 2.029 3.324l1.638.83V35.8a3.706 3.706 0 0 0-1.833 3.199c0 2.052 1.641 3.714 3.666 3.714s3.667-1.662 3.667-3.714A3.706 3.706 0 0 0 7.334 35.8V24.582l5.5 2.785v11.632c0 7.18 9.028 13 20.166 13s20.167-5.82 20.167-13V27.367l10.805-5.472A3.72 3.72 0 0 0 66 18.571a3.72 3.72 0 0 0-2.028-3.325zM47.667 38.999c0 3.435-6.406 7.429-14.667 7.429-8.26 0-14.666-3.994-14.666-7.429v-8.847l13.028 6.6a3.6 3.6 0 0 0 1.638.39c.589 0 1.144-.139 1.639-.39l13.028-6.6v8.847zM33 31.353L7.763 18.571 33 5.789l25.237 12.782L33 31.353z"></path>
  </symbol>
  <symbol xmlns="http://www.w3.org/2000/svg" id="card">
    <path d="M18.851 5.206l-3.257 7.313c-.258.579-.824.98-1.48.98H3.8c-.899 0-1.629-.755-1.629-1.687V3.443L.239 1.44A.856.856 0 0 1 0 .843C0 .377.364 0 .814 0c.225 0 .429.094.576.247l2.476 2.565h13.505c.9 0 1.629.755 1.629 1.688 0 .252-.053.491-.149.706zM3.8 11.812h10.314l2.005-4.5H3.8v4.5zM17.371 4.5H3.8v1.125h13.071l.502-1.126-.002.001zM4.343 14.625c.899 0 1.628.755 1.628 1.687 0 .933-.729 1.688-1.628 1.688-.899 0-1.629-.755-1.629-1.688 0-.932.73-1.687 1.629-1.687zm8.686 0c.899 0 1.628.755 1.628 1.687 0 .933-.729 1.688-1.628 1.688-.899 0-1.629-.755-1.629-1.688 0-.932.73-1.687 1.629-1.687z"></path>
  </symbol>
  <symbol xmlns="http://www.w3.org/2000/svg" id="design">
    <path d="M31.651 8.651L23.349.348a1.197 1.197 0 0 0-.849-.349c-.308 0-.614.115-.848.349L0 21.999v10h10l21.651-21.651c.235-.234.349-.542.349-.849a1.19 1.19 0 0 0-.349-.848zM4.561 21.439L18.44 7.559l6 6.001-13.879 13.879-6-6zM3 24.12l4.879 4.879H3V24.12zm23.561-12.681l-6-6 1.939-1.94 6 6-1.939 1.94z"></path>
  </symbol>
  <symbol xmlns="http://www.w3.org/2000/svg" id="dev">
    <path d="M28.913 16.472c-1.503 2.308-3.607 4.224-5.959 5.772a12.518 12.518 0 0 1-5.208 9.429 1.508 1.508 0 0 1-1.444.165 1.502 1.502 0 0 1-.906-1.137c-.228-1.347-.833-2.841-1.724-4.349-.998.272-1.968.494-2.875.651a1.5 1.5 0 0 1-1.318-.417l-4.068-4.068a1.5 1.5 0 0 1-.418-1.318 31.77 31.77 0 0 1 .651-2.874c-1.507-.89-3-1.495-4.348-1.723a1.499 1.499 0 0 1-.971-2.35 12.524 12.524 0 0 1 9.428-5.21c1.547-2.351 3.464-4.456 5.772-5.959C19.903.234 25.107-.002 30.5-.002A1.5 1.5 0 0 1 32 1.497c0 5.179-.238 10.6-3.087 14.975zM17.466 28.66a10.004 10.004 0 0 0 2.743-4.83 33.494 33.494 0 0 1-4.09 1.755c.572 1.035 1.031 2.068 1.347 3.075zM3.338 14.533c1.006.316 2.038.775 3.074 1.346a33.552 33.552 0 0 1 1.754-4.09 10.009 10.009 0 0 0-4.828 2.744zm13.823-8.935c-4.774 3.109-7.938 9.813-9.069 15.359l2.948 2.948c5.546-1.132 12.25-4.295 15.359-9.07 2.156-3.31 2.537-7.455 2.593-11.829-4.375.056-8.519.437-11.831 2.592zm4.339 7.4a2.5 2.5 0 1 1 0-5 2.5 2.5 0 0 1 0 5zM2.107 26.772a2.5 2.5 0 1 1 3.119 3.119l-3.581 1.086a.5.5 0 0 1-.624-.624l1.086-3.581z"></path>
  </symbol>
  <symbol xmlns="http://www.w3.org/2000/svg" viewBox="0 0 477.175 477.175" id="next">
    <path d="M360.731 229.075l-225.1-225.1c-5.3-5.3-13.8-5.3-19.1 0s-5.3 13.8 0 19.1l215.5 215.5-215.5 215.5c-5.3 5.3-5.3 13.8 0 19.1 2.6 2.6 6.1 4 9.5 4 3.4 0 6.9-1.3 9.5-4l225.1-225.1c5.3-5.2 5.3-13.8.1-19z"></path>
  </symbol>
  <symbol xmlns="http://www.w3.org/2000/svg" id="portfolio">
    <path d="M24 5.388V2.393a1.998 1.998 0 0 0-2-1.995H10c-1.105 0-2 .893-2 1.995v2.995H2c-1.105 0-2 .894-2 1.997v18.964c0 1.103.895 1.997 2 1.997h28c1.104 0 2-.894 2-1.997V7.385a1.999 1.999 0 0 0-2-1.997h-6zM11 3.392h10v1.996H11V3.392zm18 4.991v5.989H19v-.999h-6v.999H3V8.383h26zM3 25.351v-7.985h10v.999h6v-.999h10v7.985H3z"></path>
  </symbol>
  <symbol xmlns="http://www.w3.org/2000/svg" viewBox="0 0 477.175 477.175" id="prev">
    <path d="M145.188 238.575l215.5-215.5c5.3-5.3 5.3-13.8 0-19.1s-13.8-5.3-19.1 0l-225.1 225.1c-5.3 5.3-5.3 13.8 0 19.1l225.1 225c2.6 2.6 6.1 4 9.5 4s6.9-1.3 9.5-4c5.3-5.3 5.3-13.8 0-19.1l-215.4-215.5z"></path>
  </symbol>
  <symbol viewBox="0 -25 424 424" xmlns="http://www.w3.org/2000/svg" id="rocket">
    <path d="M167.29 272.133a6.972 6.972 0 0 1-4.532-1.672l-45.297-38.57a7 7 0 0 1 0-10.66l45.297-38.57a7 7 0 0 1 9.867.788c2.504 2.946 2.152 7.363-.793 9.867l-39.035 33.243 39.035 33.242a7 7 0 0 1-4.543 12.332zm89.42 0a6.972 6.972 0 0 1-5.331-2.465 7 7 0 0 1 .789-9.867l39.035-33.242-39.035-33.243a7 7 0 0 1 9.074-10.656l45.297 38.57a7 7 0 0 1 0 10.66l-45.297 38.57a6.972 6.972 0 0 1-4.531 1.673zm-60.745 28.93a7.002 7.002 0 0 1-6.86-8.445l28.23-134.036a7 7 0 0 1 13.7 2.887l-28.23 134.035a7.001 7.001 0 0 1-6.84 5.559zm0 0"></path>
    <path d="M377 374.086H47c-25.914 0-47-21.082-47-47V47C0 21.086 21.086 0 47 0h330c25.914 0 47 21.086 47 47v280.086c0 25.918-21.086 47-47 47zM47 14c-18.195 0-33 14.805-33 33v280.086c0 18.195 14.805 33 33 33h330c18.195 0 33-14.805 33-33V47c0-18.195-14.805-33-33-33zm0 0"></path>
    <path d="M417 112.09H7a7.001 7.001 0 0 1 0-14h410a7.001 7.001 0 0 1 0 14zM119.602 78.594c-12.211 0-22.153-9.942-22.153-22.153 0-12.214 9.942-22.152 22.153-22.152 12.214 0 22.152 9.938 22.152 22.152 0 12.211-9.938 22.153-22.152 22.153zm0-30.305c-4.493 0-8.153 3.656-8.153 8.152s3.66 8.153 8.153 8.153c4.496 0 8.152-3.656 8.152-8.153s-3.656-8.152-8.152-8.152zM51.54 78.379c-12.216 0-22.153-9.938-22.153-22.152 0-12.215 9.937-22.153 22.152-22.153 12.215 0 22.152 9.938 22.152 22.153 0 12.214-9.937 22.152-22.152 22.152zm0-30.305c-4.493 0-8.153 3.66-8.153 8.153 0 4.496 3.66 8.152 8.152 8.152 4.496 0 8.152-3.656 8.152-8.152 0-4.493-3.656-8.153-8.152-8.153zm136.124 30.731c-12.21 0-22.148-9.938-22.148-22.153 0-12.21 9.937-22.148 22.148-22.148 12.215 0 22.152 9.937 22.152 22.148 0 12.215-9.937 22.153-22.152 22.153zm0-30.305c-4.492 0-8.148 3.656-8.148 8.152s3.656 8.153 8.148 8.153c4.496 0 8.152-3.657 8.152-8.153s-3.656-8.152-8.152-8.152zm0 0"></path>
  </symbol>
  <symbol xmlns="http://www.w3.org/2000/svg" viewBox="0 0 30.239 30.239" id="search">
    <path d="M20.194 3.46c-4.613-4.613-12.121-4.613-16.734 0-4.612 4.614-4.612 12.121 0 16.735 4.108 4.107 10.506 4.547 15.116 1.34.097.459.319.897.676 1.254l6.718 6.718a2.498 2.498 0 0 0 3.535 0 2.496 2.496 0 0 0 0-3.535l-6.718-6.72a2.5 2.5 0 0 0-1.253-.674c3.209-4.611 2.769-11.008-1.34-15.118zm-2.121 14.614c-3.444 3.444-9.049 3.444-12.492 0-3.442-3.444-3.442-9.048 0-12.492 3.443-3.443 9.048-3.443 12.492 0 3.444 3.444 3.444 9.048 0 12.492z"></path>
  </symbol>
</svg>